<mxfile host="app.diagrams.net" modified="2023-06-07T03:29:26.581Z" agent="Mozilla/5.0 (Macintosh; Intel Mac OS X 10.15; rv:109.0) Gecko/20100101 Firefox/113.0" etag="A7vclCDGLOXdZYNAbieU" version="21.3.7" type="device">
  <diagram name="Page-1" id="74e2e168-ea6b-b213-b513-2b3c1d86103e">
    <mxGraphModel dx="1882" dy="1040" grid="0" gridSize="10" guides="1" tooltips="1" connect="1" arrows="1" fold="1" page="0" pageScale="1" pageWidth="1100" pageHeight="850" background="none" math="0" shadow="0">
      <root>
        <mxCell id="0" />
        <mxCell id="1" parent="0" />
        <mxCell id="77e6c97f196da883-1" value="&lt;font style=&quot;font-size: 18px;&quot;&gt;TCP 流程图&lt;/font&gt;" style="swimlane;html=1;childLayout=stackLayout;startSize=20;rounded=0;shadow=0;labelBackgroundColor=none;strokeWidth=1;fontFamily=Verdana;fontSize=18;align=center;" parent="1" vertex="1">
          <mxGeometry x="-7" y="-37" width="759" height="462" as="geometry">
            <mxRectangle x="60" y="-30" width="210" height="40" as="alternateBounds" />
          </mxGeometry>
        </mxCell>
        <mxCell id="k9yy4idc6pMp43QgDsTV-271" style="edgeStyle=orthogonalEdgeStyle;rounded=0;orthogonalLoop=1;jettySize=auto;html=1;exitX=1;exitY=0.5;exitDx=0;exitDy=0;fontSize=12;" parent="77e6c97f196da883-1" edge="1">
          <mxGeometry relative="1" as="geometry">
            <mxPoint x="595" y="73" as="targetPoint" />
            <Array as="points">
              <mxPoint x="480" y="548" />
              <mxPoint x="545" y="548" />
              <mxPoint x="545" y="73" />
            </Array>
          </mxGeometry>
        </mxCell>
        <mxCell id="k9yy4idc6pMp43QgDsTV-189" value="" style="edgeStyle=orthogonalEdgeStyle;rounded=0;orthogonalLoop=1;jettySize=auto;html=1;fontSize=12;" parent="77e6c97f196da883-1" source="k9yy4idc6pMp43QgDsTV-16" edge="1">
          <mxGeometry relative="1" as="geometry">
            <mxPoint x="320" y="75" as="targetPoint" />
            <Array as="points">
              <mxPoint x="280" y="391" />
              <mxPoint x="280" y="75" />
            </Array>
          </mxGeometry>
        </mxCell>
        <mxCell id="77e6c97f196da883-2" value="Listener/监听" style="swimlane;html=1;startSize=20;fontSize=15;" parent="77e6c97f196da883-1" vertex="1">
          <mxGeometry y="20" width="321" height="442" as="geometry">
            <mxRectangle y="20" width="40" height="1050" as="alternateBounds" />
          </mxGeometry>
        </mxCell>
        <mxCell id="k9yy4idc6pMp43QgDsTV-6" value="" style="edgeStyle=orthogonalEdgeStyle;rounded=0;orthogonalLoop=1;jettySize=auto;html=1;fontSize=12;" parent="77e6c97f196da883-2" source="77e6c97f196da883-8" target="k9yy4idc6pMp43QgDsTV-2" edge="1">
          <mxGeometry relative="1" as="geometry" />
        </mxCell>
        <mxCell id="77e6c97f196da883-8" value="Accept TCP connections" style="rounded=1;whiteSpace=wrap;html=1;shadow=0;labelBackgroundColor=none;strokeWidth=1;fontFamily=Verdana;fontSize=12;align=center;" parent="77e6c97f196da883-2" vertex="1">
          <mxGeometry x="110" y="40" width="100" height="60" as="geometry" />
        </mxCell>
        <mxCell id="k9yy4idc6pMp43QgDsTV-8" value="" style="edgeStyle=orthogonalEdgeStyle;rounded=0;orthogonalLoop=1;jettySize=auto;html=1;fontSize=12;entryX=0.5;entryY=0;entryDx=0;entryDy=0;" parent="77e6c97f196da883-2" source="77e6c97f196da883-9" target="k9yy4idc6pMp43QgDsTV-16" edge="1">
          <mxGeometry relative="1" as="geometry">
            <mxPoint x="160" y="326" as="targetPoint" />
          </mxGeometry>
        </mxCell>
        <mxCell id="77e6c97f196da883-9" value="四层限流" style="rounded=1;whiteSpace=wrap;html=1;shadow=0;labelBackgroundColor=none;strokeWidth=1;fontFamily=Verdana;fontSize=12;align=center;" parent="77e6c97f196da883-2" vertex="1">
          <mxGeometry x="110" y="240" width="100" height="60" as="geometry" />
        </mxCell>
        <mxCell id="k9yy4idc6pMp43QgDsTV-5" value="放行" style="edgeStyle=orthogonalEdgeStyle;rounded=0;orthogonalLoop=1;jettySize=auto;html=1;fontSize=12;" parent="77e6c97f196da883-2" source="k9yy4idc6pMp43QgDsTV-2" target="77e6c97f196da883-9" edge="1">
          <mxGeometry relative="1" as="geometry" />
        </mxCell>
        <mxCell id="k9yy4idc6pMp43QgDsTV-2" value="&lt;div style=&quot;font-size: 12px;&quot;&gt;IP&lt;/div&gt;&lt;div style=&quot;font-size: 12px;&quot;&gt;黑白名单&lt;br style=&quot;font-size: 12px;&quot;&gt;&lt;/div&gt;" style="rhombus;whiteSpace=wrap;html=1;fontSize=12;" parent="77e6c97f196da883-2" vertex="1">
          <mxGeometry x="100" y="125" width="120" height="80" as="geometry" />
        </mxCell>
        <mxCell id="k9yy4idc6pMp43QgDsTV-3" value="" style="endArrow=classic;html=1;rounded=0;exitX=0;exitY=0.5;exitDx=0;exitDy=0;fontSize=12;" parent="77e6c97f196da883-2" source="k9yy4idc6pMp43QgDsTV-2" edge="1">
          <mxGeometry width="50" height="50" relative="1" as="geometry">
            <mxPoint x="100" y="170" as="sourcePoint" />
            <mxPoint y="165" as="targetPoint" />
          </mxGeometry>
        </mxCell>
        <mxCell id="k9yy4idc6pMp43QgDsTV-4" value="阻挡" style="edgeLabel;html=1;align=center;verticalAlign=middle;resizable=0;points=[];fontSize=12;" parent="k9yy4idc6pMp43QgDsTV-3" vertex="1" connectable="0">
          <mxGeometry x="-0.05" relative="1" as="geometry">
            <mxPoint as="offset" />
          </mxGeometry>
        </mxCell>
        <mxCell id="k9yy4idc6pMp43QgDsTV-16" value="&lt;div style=&quot;font-size: 12px;&quot;&gt;chain&lt;/div&gt;下一流程" style="ellipse;whiteSpace=wrap;html=1;aspect=fixed;fontSize=12;" parent="77e6c97f196da883-2" vertex="1">
          <mxGeometry x="120" y="334" width="80" height="80" as="geometry" />
        </mxCell>
        <mxCell id="77e6c97f196da883-6" value="Forward/转发" style="swimlane;html=1;startSize=20;fontSize=15;" parent="77e6c97f196da883-1" vertex="1">
          <mxGeometry x="321" y="20" width="239" height="442" as="geometry" />
        </mxCell>
        <mxCell id="ktWB_Vb_ixAs_fgzPAio-7" value="" style="edgeStyle=orthogonalEdgeStyle;rounded=0;orthogonalLoop=1;jettySize=auto;html=1;entryX=0.5;entryY=0;entryDx=0;entryDy=0;" parent="77e6c97f196da883-6" source="k9yy4idc6pMp43QgDsTV-169" target="ktWB_Vb_ixAs_fgzPAio-5" edge="1">
          <mxGeometry relative="1" as="geometry" />
        </mxCell>
        <mxCell id="k9yy4idc6pMp43QgDsTV-169" value="&lt;div style=&quot;font-size: 12px;&quot;&gt;负载均衡&lt;/div&gt;&lt;div style=&quot;font-size: 12px;&quot;&gt;upstream target&lt;br&gt;&lt;/div&gt;" style="rounded=1;whiteSpace=wrap;html=1;shadow=0;labelBackgroundColor=none;strokeWidth=1;fontFamily=Verdana;fontSize=12;align=center;flipV=1;" parent="77e6c97f196da883-6" vertex="1">
          <mxGeometry x="60" y="33" width="100" height="80" as="geometry" />
        </mxCell>
        <mxCell id="ktWB_Vb_ixAs_fgzPAio-2" value="" style="edgeStyle=orthogonalEdgeStyle;rounded=0;orthogonalLoop=1;jettySize=auto;html=1;" parent="77e6c97f196da883-6" edge="1">
          <mxGeometry relative="1" as="geometry">
            <mxPoint x="111" y="279" as="sourcePoint" />
            <mxPoint x="111" y="308" as="targetPoint" />
          </mxGeometry>
        </mxCell>
        <mxCell id="k9yy4idc6pMp43QgDsTV-176" value="&lt;div style=&quot;font-size: 12px;&quot;&gt;TLS cert&lt;/div&gt;&lt;div style=&quot;font-size: 12px;&quot;&gt;&lt;br style=&quot;font-size: 12px;&quot;&gt;&lt;/div&gt;&lt;div style=&quot;font-size: 12px;&quot;&gt;选择使用&lt;/div&gt;&lt;div style=&quot;font-size: 12px;&quot;&gt;上游证书&lt;/div&gt;" style="rounded=1;whiteSpace=wrap;html=1;shadow=0;labelBackgroundColor=none;strokeWidth=1;fontFamily=Verdana;fontSize=12;align=center;flipV=1;" parent="77e6c97f196da883-6" vertex="1">
          <mxGeometry x="60" y="199" width="100" height="80" as="geometry" />
        </mxCell>
        <mxCell id="ktWB_Vb_ixAs_fgzPAio-4" value="" style="edgeStyle=orthogonalEdgeStyle;rounded=0;orthogonalLoop=1;jettySize=auto;html=1;" parent="77e6c97f196da883-6" source="k9yy4idc6pMp43QgDsTV-182" edge="1">
          <mxGeometry relative="1" as="geometry">
            <mxPoint x="238" y="53" as="targetPoint" />
            <Array as="points">
              <mxPoint x="191" y="348" />
              <mxPoint x="191" y="53" />
            </Array>
          </mxGeometry>
        </mxCell>
        <mxCell id="ktWB_Vb_ixAs_fgzPAio-15" value="" style="edgeStyle=orthogonalEdgeStyle;rounded=0;orthogonalLoop=1;jettySize=auto;html=1;exitX=0.5;exitY=1;exitDx=0;exitDy=0;" parent="77e6c97f196da883-6" source="k9yy4idc6pMp43QgDsTV-182" edge="1">
          <mxGeometry relative="1" as="geometry">
            <mxPoint x="3" y="397" as="targetPoint" />
            <Array as="points">
              <mxPoint x="110" y="397" />
            </Array>
          </mxGeometry>
        </mxCell>
        <mxCell id="k9yy4idc6pMp43QgDsTV-182" value="&lt;div style=&quot;font-size: 12px;&quot;&gt;chain&lt;/div&gt;下一流程" style="ellipse;whiteSpace=wrap;html=1;aspect=fixed;fontSize=12;" parent="77e6c97f196da883-6" vertex="1">
          <mxGeometry x="70" y="308" width="80" height="80" as="geometry" />
        </mxCell>
        <mxCell id="ktWB_Vb_ixAs_fgzPAio-9" value="" style="edgeStyle=orthogonalEdgeStyle;rounded=0;orthogonalLoop=1;jettySize=auto;html=1;entryX=0.5;entryY=0;entryDx=0;entryDy=0;" parent="77e6c97f196da883-6" source="ktWB_Vb_ixAs_fgzPAio-5" target="k9yy4idc6pMp43QgDsTV-176" edge="1">
          <mxGeometry relative="1" as="geometry">
            <mxPoint x="10" y="153.5" as="targetPoint" />
            <Array as="points">
              <mxPoint x="110" y="185" />
              <mxPoint x="110" y="185" />
            </Array>
          </mxGeometry>
        </mxCell>
        <mxCell id="ktWB_Vb_ixAs_fgzPAio-13" value="是" style="edgeLabel;html=1;align=center;verticalAlign=middle;resizable=0;points=[];" parent="ktWB_Vb_ixAs_fgzPAio-9" vertex="1" connectable="0">
          <mxGeometry x="-0.4286" y="2" relative="1" as="geometry">
            <mxPoint as="offset" />
          </mxGeometry>
        </mxCell>
        <mxCell id="ktWB_Vb_ixAs_fgzPAio-11" value="" style="edgeStyle=orthogonalEdgeStyle;rounded=0;orthogonalLoop=1;jettySize=auto;html=1;exitX=1;exitY=0.5;exitDx=0;exitDy=0;entryX=0.5;entryY=0;entryDx=0;entryDy=0;" parent="77e6c97f196da883-6" source="ktWB_Vb_ixAs_fgzPAio-5" target="k9yy4idc6pMp43QgDsTV-182" edge="1">
          <mxGeometry relative="1" as="geometry">
            <mxPoint x="110" y="290" as="targetPoint" />
            <Array as="points">
              <mxPoint x="170" y="154" />
              <mxPoint x="170" y="292" />
              <mxPoint x="111" y="292" />
            </Array>
          </mxGeometry>
        </mxCell>
        <mxCell id="ktWB_Vb_ixAs_fgzPAio-12" value="否" style="edgeLabel;html=1;align=center;verticalAlign=middle;resizable=0;points=[];" parent="ktWB_Vb_ixAs_fgzPAio-11" vertex="1" connectable="0">
          <mxGeometry x="-0.6466" y="2" relative="1" as="geometry">
            <mxPoint y="1" as="offset" />
          </mxGeometry>
        </mxCell>
        <mxCell id="ktWB_Vb_ixAs_fgzPAio-5" value="&lt;div&gt;是否有&lt;/div&gt;&lt;div&gt;TLS证书&lt;br&gt;&lt;/div&gt;" style="rhombus;whiteSpace=wrap;html=1;" parent="77e6c97f196da883-6" vertex="1">
          <mxGeometry x="70" y="127" width="80" height="53" as="geometry" />
        </mxCell>
        <mxCell id="77e6c97f196da883-7" value="Connect/连接" style="swimlane;html=1;startSize=20;fontSize=15;" parent="77e6c97f196da883-1" vertex="1">
          <mxGeometry x="560" y="20" width="199" height="442" as="geometry" />
        </mxCell>
        <mxCell id="k9yy4idc6pMp43QgDsTV-218" value="" style="edgeStyle=orthogonalEdgeStyle;rounded=0;orthogonalLoop=1;jettySize=auto;html=1;fontSize=12;" parent="77e6c97f196da883-7" source="k9yy4idc6pMp43QgDsTV-180" target="k9yy4idc6pMp43QgDsTV-185" edge="1">
          <mxGeometry relative="1" as="geometry" />
        </mxCell>
        <mxCell id="k9yy4idc6pMp43QgDsTV-180" value="&lt;div style=&quot;font-size: 12px;&quot;&gt;Connect&lt;/div&gt;&lt;div style=&quot;font-size: 12px;&quot;&gt;&lt;br style=&quot;font-size: 12px;&quot;&gt;&lt;/div&gt;&lt;div style=&quot;font-size: 12px;&quot;&gt;连接&lt;br style=&quot;font-size: 12px;&quot;&gt;&lt;/div&gt;" style="rounded=1;whiteSpace=wrap;html=1;shadow=0;labelBackgroundColor=none;strokeWidth=1;fontFamily=Verdana;fontSize=12;align=center;" parent="77e6c97f196da883-7" vertex="1">
          <mxGeometry x="38" y="41" width="100" height="80" as="geometry" />
        </mxCell>
        <mxCell id="k9yy4idc6pMp43QgDsTV-221" value="" style="edgeStyle=orthogonalEdgeStyle;rounded=0;orthogonalLoop=1;jettySize=auto;html=1;fontSize=12;" parent="77e6c97f196da883-7" source="k9yy4idc6pMp43QgDsTV-184" edge="1">
          <mxGeometry relative="1" as="geometry">
            <mxPoint y="363" as="targetPoint" />
            <Array as="points">
              <mxPoint x="88" y="363" />
              <mxPoint y="363" />
            </Array>
          </mxGeometry>
        </mxCell>
        <mxCell id="k9yy4idc6pMp43QgDsTV-184" value="&lt;div style=&quot;font-size: 12px;&quot;&gt;Connect&lt;/div&gt;&lt;div style=&quot;font-size: 12px;&quot;&gt;&lt;br style=&quot;font-size: 12px;&quot;&gt;&lt;/div&gt;&lt;div style=&quot;font-size: 12px;&quot;&gt;通过Socks或者HTTP代理&lt;br style=&quot;font-size: 12px;&quot;&gt;&lt;/div&gt;" style="rounded=1;whiteSpace=wrap;html=1;shadow=0;labelBackgroundColor=none;strokeWidth=1;fontFamily=Verdana;fontSize=12;align=center;" parent="77e6c97f196da883-7" vertex="1">
          <mxGeometry x="38" y="260" width="100" height="80" as="geometry" />
        </mxCell>
        <mxCell id="k9yy4idc6pMp43QgDsTV-219" value="" style="edgeStyle=orthogonalEdgeStyle;rounded=0;orthogonalLoop=1;jettySize=auto;html=1;fontSize=12;" parent="77e6c97f196da883-7" source="k9yy4idc6pMp43QgDsTV-185" target="k9yy4idc6pMp43QgDsTV-184" edge="1">
          <mxGeometry relative="1" as="geometry" />
        </mxCell>
        <mxCell id="k9yy4idc6pMp43QgDsTV-224" value="是" style="edgeLabel;html=1;align=center;verticalAlign=middle;resizable=0;points=[];fontSize=12;" parent="k9yy4idc6pMp43QgDsTV-219" vertex="1" connectable="0">
          <mxGeometry x="0.28" y="1" relative="1" as="geometry">
            <mxPoint as="offset" />
          </mxGeometry>
        </mxCell>
        <mxCell id="k9yy4idc6pMp43QgDsTV-223" value="否" style="edgeStyle=orthogonalEdgeStyle;rounded=0;orthogonalLoop=1;jettySize=auto;html=1;fontSize=12;" parent="77e6c97f196da883-7" edge="1">
          <mxGeometry relative="1" as="geometry">
            <mxPoint x="130" y="190" as="sourcePoint" />
            <mxPoint y="363" as="targetPoint" />
            <Array as="points">
              <mxPoint x="160" y="190" />
              <mxPoint x="160" y="363" />
              <mxPoint y="363" />
            </Array>
          </mxGeometry>
        </mxCell>
        <mxCell id="k9yy4idc6pMp43QgDsTV-185" value="&lt;div style=&quot;font-size: 12px;&quot;&gt;是否&lt;/div&gt;&lt;div style=&quot;font-size: 12px;&quot;&gt;代理&lt;br style=&quot;font-size: 12px;&quot;&gt;&lt;/div&gt;" style="rhombus;whiteSpace=wrap;html=1;fontSize=12;" parent="77e6c97f196da883-7" vertex="1">
          <mxGeometry x="48" y="150" width="80" height="80" as="geometry" />
        </mxCell>
      </root>
    </mxGraphModel>
  </diagram>
</mxfile>
